<?xml version="1.0" standalone="no"?>
<!DOCTYPE svg PUBLIC "-//W3C//DTD SVG 20010904//EN"
 "http://www.w3.org/TR/2001/REC-SVG-20010904/DTD/svg10.dtd">
<svg version="1.0" xmlns="http://www.w3.org/2000/svg"
 width="512.000000pt" height="512.000000pt" viewBox="0 0 512.000000 512.000000"
 preserveAspectRatio="xMidYMid meet">

<g transform="translate(0.000000,512.000000) scale(0.100000,-0.100000)"
fill="#000000" stroke="none">
<path d="M289 5036 c-81 -22 -135 -71 -174 -159 -149 -337 -67 -729 203 -978
38 -35 111 -89 162 -119 133 -79 190 -155 210 -276 11 -69 1 -128 -42 -244
-50 -132 -62 -197 -61 -330 3 -304 162 -576 428 -732 120 -70 179 -138 209
-238 23 -77 20 -141 -10 -228 -35 -101 -35 -164 1 -237 46 -95 128 -140 240
-133 122 8 195 80 252 253 25 74 27 93 27 250 1 166 0 172 -32 265 -18 52 -54
131 -80 175 -64 108 -191 235 -302 299 -112 66 -154 105 -191 182 -47 94 -51
183 -14 284 60 167 76 233 82 345 15 321 -146 612 -437 785 -146 87 -201 169
-208 310 -3 73 0 96 22 159 55 156 18 279 -100 343 -61 32 -125 41 -185 24z
m119 -202 c27 -31 27 -45 0 -119 -30 -83 -36 -241 -13 -321 42 -146 123 -246
270 -334 132 -79 231 -182 289 -301 94 -196 99 -387 17 -587 -36 -87 -51 -156
-51 -235 0 -186 107 -359 286 -464 190 -112 303 -262 350 -461 24 -102 15
-274 -19 -372 -29 -82 -54 -110 -99 -110 -41 0 -64 15 -76 50 -9 24 -6 43 14
102 50 146 42 276 -26 414 -46 95 -128 179 -231 237 -228 128 -361 353 -361
606 0 105 18 199 55 283 79 177 65 367 -37 522 -49 72 -108 124 -210 182 -259
149 -399 449 -342 733 21 105 56 183 87 198 33 16 69 7 97 -23z"/>
<path d="M2087 5026 c-50 -18 -76 -42 -98 -91 -17 -36 -19 -71 -19 -360 0
-289 2 -324 19 -360 39 -86 87 -105 266 -105 l135 0 0 -218 0 -219 286 -489
c157 -269 292 -499 300 -512 9 -13 31 -33 50 -44 l34 -20 0 -718 c0 -442 4
-729 10 -744 11 -29 299 -226 330 -226 10 0 86 45 169 99 136 91 151 103 160
138 7 25 11 279 11 745 l0 707 30 16 c38 20 39 21 366 580 l269 460 3 223 3
222 127 0 c70 0 145 5 167 11 50 14 100 64 114 114 15 54 15 626 0 680 -14 50
-64 100 -114 114 -28 8 -418 11 -1310 11 -1045 -1 -1277 -3 -1308 -14z m1143
-1351 c0 -9 11 -27 25 -40 l24 -25 366 0 c201 0 365 -4 365 -9 0 -5 -107 -192
-239 -417 l-238 -409 -209 -2 -209 -3 -243 418 -242 417 154 3 c154 2 155 3
175 29 12 14 21 32 21 39 0 11 26 14 125 14 106 0 125 -2 125 -15z m170 -1190
l0 -114 -72 -49 c-40 -27 -79 -52 -85 -56 -10 -6 -13 30 -13 163 l0 171 85 0
85 0 0 -115z m0 -430 l0 -104 -72 -49 c-40 -27 -79 -52 -85 -56 -10 -6 -13 17
-13 98 l0 106 82 55 c46 30 84 55 85 55 2 0 3 -47 3 -105z m0 -420 l0 -104
-72 -49 c-40 -27 -79 -52 -85 -56 -10 -6 -13 17 -13 98 l0 106 82 55 c46 30
84 55 85 55 2 0 3 -47 3 -105z m-2 -468 l-3 -54 -79 53 -79 53 79 50 79 51 3
-50 c2 -27 2 -74 0 -103z"/>
<path d="M1865 3666 c-126 -58 -170 -179 -122 -331 50 -162 45 -224 -25 -297
-56 -58 -78 -110 -78 -184 0 -114 70 -209 179 -240 68 -20 127 -13 194 23 90
49 198 195 239 323 26 81 35 251 19 346 -13 73 -54 212 -76 254 -20 38 -86 97
-127 115 -56 23 -143 19 -203 -9z m165 -171 c55 -59 97 -312 71 -436 -23 -111
-104 -239 -173 -275 -59 -30 -118 6 -118 73 0 24 10 42 40 72 23 22 53 66 68
98 23 51 27 70 26 148 -1 62 -9 112 -24 160 -35 113 -36 130 -6 159 34 35 84
35 116 1z"/>
<path d="M2450 2353 c-34 -12 -60 -47 -60 -80 0 -28 28 -68 183 -260 100 -125
194 -234 208 -242 51 -28 113 18 111 81 0 22 -47 87 -182 256 -100 125 -187
230 -193 233 -22 12 -52 17 -67 12z"/>
<path d="M209 2336 c-86 -30 -154 -119 -165 -213 -8 -62 17 -157 64 -248 52
-101 181 -228 287 -283 150 -76 363 -121 447 -93 166 55 230 255 125 393 -43
56 -97 85 -192 103 -138 27 -217 76 -230 143 -3 15 -17 50 -31 79 -42 84 -121
132 -219 132 -27 0 -66 -6 -86 -13z m133 -176 c15 -11 30 -38 37 -65 34 -134
152 -223 351 -262 55 -11 81 -21 98 -39 30 -34 29 -78 -4 -111 -24 -23 -30
-25 -82 -19 -263 31 -468 182 -522 385 -6 24 -9 54 -5 68 14 59 79 81 127 43z"/>
<path d="M4278 2336 c-32 -24 -367 -449 -373 -473 -14 -55 48 -113 103 -96 18
6 83 78 200 224 95 117 180 226 188 241 18 35 9 72 -23 98 -29 23 -70 25 -95
6z"/>
<path d="M1853 2255 c-53 -23 -62 -92 -17 -132 33 -30 78 -30 109 2 66 65 -7
167 -92 130z"/>
<path d="M4881 2259 c-81 -32 -58 -159 29 -159 68 0 106 89 60 138 -12 12 -25
22 -30 22 -4 0 -14 2 -22 4 -7 3 -24 0 -37 -5z"/>
<path d="M2082 1987 c-14 -15 -22 -36 -22 -58 0 -32 26 -60 358 -392 326 -326
360 -357 390 -357 46 0 68 14 81 51 8 25 8 38 -4 63 -9 18 -170 186 -358 374
-337 336 -344 342 -383 342 -29 0 -47 -6 -62 -23z"/>
<path d="M4269 1663 c-192 -190 -353 -359 -360 -375 -23 -57 33 -122 95 -111
14 3 172 154 380 362 334 335 356 359 356 392 0 48 -33 79 -85 79 -38 0 -49
-11 -386 -347z"/>
<path d="M70 1231 l-30 -29 0 -572 0 -572 29 -29 29 -29 2462 0 2462 0 29 29
29 29 0 572 0 572 -30 29 -29 30 -403 -3 c-391 -3 -404 -4 -443 -25 -47 -25
-96 -75 -119 -120 -90 -178 -457 -335 -944 -403 -693 -97 -1480 1 -1863 231
-98 59 -141 97 -176 159 -35 61 -80 107 -128 133 -39 21 -52 22 -443 25 l-403
3 -29 -30z m816 -168 c14 -16 47 -57 72 -93 163 -225 600 -388 1217 -451 177
-19 627 -16 812 4 377 42 651 111 878 222 138 68 237 143 297 226 25 35 58 76
72 92 l25 27 325 0 326 0 0 -460 0 -460 -2350 0 -2350 0 0 460 0 460 326 0
325 0 25 -27z"/>
<path d="M402 477 c-30 -32 -29 -87 1 -116 30 -27 110 -38 161 -21 67 22 88
89 41 135 -21 22 -33 25 -103 25 -69 0 -81 -3 -100 -23z"/>
<path d="M822 477 c-31 -33 -29 -87 4 -118 l26 -24 323 0 323 0 26 24 c34 32
36 88 3 119 -23 22 -28 22 -353 22 l-331 0 -21 -23z"/>
</g>
</svg>
